{"accessors":[{"bufferView":0,"componentType":5125,"count":6,"max":[3.0],"min":[0.0],"type":"SCALAR"},{"bufferView":1,"componentType":5126,"count":4,"max":[0.07880000025033951,0.064121775329113,-0.015866026282310487],"min":[0.009200000204145909,0.0207339059561491,-0.04091602563858032],"type":"VEC3"},{"bufferView":2,"componentType":5126,"count":4,"max":[0.0,0.5,-0.8660253882408142],"min":[0.0,0.5,-0.8660253882408142],"type":"VEC3"},{"bufferView":3,"componentType":5126,"count":4,"max":[1.5229297876358033,1.0],"min":[-1.6907917151207689e-16,-1.3593499660491944],"type":"VEC2"},{"bufferView":4,"componentType":5125,"count":498,"max":[212.0],"min":[0.0],"type":"SCALAR"},{"bufferView":5,"componentType":5126,"count":213,"max":[0.08799999952316284,0.07378203421831131,3.469446951953614e-18],"min":[-2.7755575615628916e-17,-3.903127820947816e-18,-0.052994925528764728],"type":"VEC3"},{"bufferView":6,"componentType":5126,"count":213,"max":[1.0,1.0,1.0],"min":[-1.0,-1.0,-0.9983081817626953],"type":"VEC3"},{"bufferView":7,"componentType":5125,"count":4908,"max":[1707.0],"min":[0.0],"type":"SCALAR"},{"bufferView":8,"componentType":5126,"count":1708,"max":[0.005049999803304672,0.002050000010058284,0.003700000001117587],"min":[-0.005049999803304672,-0.002050000010058284,0.0],"type":"VEC3"},{"bufferView":9,"componentType":5126,"count":1708,"max":[1.0,1.0,1.0],"min":[-1.0,-1.0,-1.0],"type":"VEC3"},{"bufferView":10,"componentType":5125,"count":2664,"max":[945.0],"min":[0.0],"type":"SCALAR"},{"bufferView":11,"componentType":5126,"count":946,"max":[0.0035500000230968,0.0016499999910593033,0.0],"min":[-0.0035500000230968,-0.0016500003403052688,-0.004800000227987766],"type":"VEC3"},{"bufferView":12,"componentType":5126,"count":946,"max":[1.0,1.0,1.0],"min":[-1.0,-1.0,-1.0],"type":"VEC3"},{"bufferView":13,"componentType":5125,"count":5292,"max":[1913.0],"min":[0.0],"type":"SCALAR"},{"bufferView":14,"componentType":5126,"count":1914,"max":[0.002950000111013651,0.0017000000225380064,0.004600000102072954],"min":[-0.002950000111013651,-0.0017000000225380064,0.0],"type":"VEC3"},{"bufferView":15,"componentType":5126,"count":1914,"max":[1.0,1.0,1.0],"min":[-1.0,-1.0,-1.0],"type":"VEC3"},{"bufferView":16,"componentType":5125,"count":276,"max":[127.0],"min":[0.0],"type":"SCALAR"},{"bufferView":17,"componentType":5126,"count":128,"max":[0.007449999917298555,0.007249999791383743,0.0020000000949949028],"min":[-0.007449999917298555,-0.007249999791383743,0.0],"type":"VEC3"},{"bufferView":18,"componentType":5126,"count":128,"max":[1.0,1.0,1.0],"min":[-1.0,-1.0,-1.0],"type":"VEC3"},{"bufferView":19,"componentType":5125,"count":84,"max":[47.0],"min":[0.0],"type":"SCALAR"},{"bufferView":20,"componentType":5126,"count":48,"max":[0.009050000458955765,0.01269999984651804,0.002400000113993883],"min":[-0.009050000458955765,-0.01269999984651804,-0.0007999999797903001],"type":"VEC3"},{"bufferView":21,"componentType":5126,"count":48,"max":[1.0,1.0,1.0],"min":[-1.0,-1.0,-1.0],"type":"VEC3"},{"bufferView":22,"componentType":5125,"count":156,"max":[95.0],"min":[0.0],"type":"SCALAR"},{"bufferView":23,"componentType":5126,"count":96,"max":[0.0017999999690800906,0.001151000033132732,0.000699999975040555],"min":[-0.0017999999690800906,-0.001151000033132732,-0.0000019999999949504856],"type":"VEC3"},{"bufferView":24,"componentType":5126,"count":96,"max":[1.0,1.0,1.0],"min":[-1.0,-1.0,-1.0],"type":"VEC3"},{"bufferView":25,"componentType":5125,"count":2820,"max":[1075.0],"min":[0.0],"type":"SCALAR"},{"bufferView":26,"componentType":5126,"count":1076,"max":[0.0430000014603138,0.025049999356269838,0.0016049999976530672],"min":[-0.0430000014603138,-0.025049999356269838,-0.0039049999322742225],"type":"VEC3"},{"bufferView":27,"componentType":5126,"count":1076,"max":[1.0,1.0,1.0],"min":[-1.0,-1.0,-1.0],"type":"VEC3"},{"bufferView":28,"componentType":5125,"count":9696,"max":[4067.0],"min":[0.0],"type":"SCALAR"},{"bufferView":29,"componentType":5126,"count":4068,"max":[0.004035001154989004,0.001485725399106741,0.0005553729715757072],"min":[-0.004035001154989004,-0.0015082458266988397,-0.005000000353902578],"type":"VEC3"},{"bufferView":30,"componentType":5126,"count":4068,"max":[1.0,1.0,1.0],"min":[-1.0,-1.0,-1.0],"type":"VEC3"},{"bufferView":31,"componentType":5125,"count":10668,"max":[4292.0],"min":[0.0],"type":"SCALAR"},{"bufferView":32,"componentType":5126,"count":4293,"max":[0.0036249998956918718,0.0011749991681426764,-0.0007999999797903001],"min":[-0.0036250001285225155,-0.0017250011442229152,-0.004999999888241291],"type":"VEC3"},{"bufferView":33,"componentType":5126,"count":4293,"max":[1.0,1.0,1.0],"min":[-1.0,-1.0,-1.0],"type":"VEC3"},{"bufferView":34,"componentType":5125,"count":432,"max":[193.0],"min":[0.0],"type":"SCALAR"},{"bufferView":35,"componentType":5126,"count":194,"max":[0.00019999999494757503,0.000375000003259629,-0.0013436824083328248],"min":[-0.00019999999494757503,-0.0012250000145286322,-0.0050088162533938889],"type":"VEC3"},{"bufferView":36,"componentType":5126,"count":194,"max":[1.0,1.0,1.0],"min":[-1.0,-1.0,-1.0],"type":"VEC3"},{"bufferView":37,"componentType":5125,"count":432,"max":[193.0],"min":[0.0],"type":"SCALAR"},{"bufferView":38,"componentType":5126,"count":194,"max":[0.0008500000112690032,0.000375000003259629,-0.0013436824083328248],"min":[0.00044999999227002263,-0.0012250000145286322,-0.0050088162533938889],"type":"VEC3"},{"bufferView":39,"componentType":5126,"count":194,"max":[1.0,1.0,1.0],"min":[-1.0,-1.0,-1.0],"type":"VEC3"},{"bufferView":40,"componentType":5125,"count":432,"max":[193.0],"min":[0.0],"type":"SCALAR"},{"bufferView":41,"componentType":5126,"count":194,"max":[0.001500000013038516,0.000375000003259629,-0.0013436824083328248],"min":[0.0010999999940395356,-0.0012250000145286322,-0.0050088162533938889],"type":"VEC3"},{"bufferView":42,"componentType":5126,"count":194,"max":[1.0,1.0,1.0],"min":[-1.0,-1.0,-1.0],"type":"VEC3"},{"bufferView":43,"componentType":5125,"count":432,"max":[193.0],"min":[0.0],"type":"SCALAR"},{"bufferView":44,"componentType":5126,"count":194,"max":[-0.00044999999227002263,0.000375000003259629,-0.0013436824083328248],"min":[-0.0008500000112690032,-0.0012250000145286322,-0.0050088162533938889],"type":"VEC3"},{"bufferView":45,"componentType":5126,"count":194,"max":[1.0,1.0,1.0],"min":[-1.0,-1.0,-1.0],"type":"VEC3"},{"bufferView":46,"componentType":5125,"count":432,"max":[193.0],"min":[0.0],"type":"SCALAR"},{"bufferView":47,"componentType":5126,"count":194,"max":[-0.0010999999940395356,0.000375000003259629,-0.0013436824083328248],"min":[-0.001500000013038516,-0.0012250000145286322,-0.0050088162533938889],"type":"VEC3"},{"bufferView":48,"componentType":5126,"count":194,"max":[1.0,1.0,1.0],"min":[-1.0,-1.0,-1.0],"type":"VEC3"},{"bufferView":49,"componentType":5125,"count":3108,"max":[1073.0],"min":[0.0],"type":"SCALAR"},{"bufferView":50,"componentType":5126,"count":1074,"max":[0.08799999952316284,0.07378203421831131,-0.009999999776482582],"min":[-2.7755575615628916e-17,0.015990380197763444,-0.04509807750582695],"type":"VEC3"},{"bufferView":51,"componentType":5126,"count":1074,"max":[1.0,0.8660253882408142,0.8660253882408142],"min":[-1.0,-0.8660253882408142,-0.8660253882408142],"type":"VEC3"}],"asset":{"generator":"SimLab GLTF","version":"2.0"},"bufferViews":[{"buffer":0,"byteLength":24,"target":34963},{"buffer":0,"byteLength":48,"byteOffset":24,"byteStride":12,"target":34962},{"buffer":0,"byteLength":48,"byteOffset":72,"byteStride":12,"target":34962},{"buffer":0,"byteLength":32,"byteOffset":120,"byteStride":8,"target":34962},{"buffer":0,"byteLength":1992,"byteOffset":152,"target":34963},{"buffer":0,"byteLength":2556,"byteOffset":2144,"byteStride":12,"target":34962},{"buffer":0,"byteLength":2556,"byteOffset":4700,"byteStride":12,"target":34962},{"buffer":0,"byteLength":19632,"byteOffset":7256,"target":34963},{"buffer":0,"byteLength":20496,"byteOffset":26888,"byteStride":12,"target":34962},{"buffer":0,"byteLength":20496,"byteOffset":47384,"byteStride":12,"target":34962},{"buffer":0,"byteLength":10656,"byteOffset":67880,"target":34963},{"buffer":0,"byteLength":11352,"byteOffset":78536,"byteStride":12,"target":34962},{"buffer":0,"byteLength":11352,"byteOffset":89888,"byteStride":12,"target":34962},{"buffer":0,"byteLength":21168,"byteOffset":101240,"target":34963},{"buffer":0,"byteLength":22968,"byteOffset":122408,"byteStride":12,"target":34962},{"buffer":0,"byteLength":22968,"byteOffset":145376,"byteStride":12,"target":34962},{"buffer":0,"byteLength":1104,"byteOffset":168344,"target":34963},{"buffer":0,"byteLength":1536,"byteOffset":169448,"byteStride":12,"target":34962},{"buffer":0,"byteLength":1536,"byteOffset":170984,"byteStride":12,"target":34962},{"buffer":0,"byteLength":336,"byteOffset":172520,"target":34963},{"buffer":0,"byteLength":576,"byteOffset":172856,"byteStride":12,"target":34962},{"buffer":0,"byteLength":576,"byteOffset":173432,"byteStride":12,"target":34962},{"buffer":0,"byteLength":624,"byteOffset":174008,"target":34963},{"buffer":0,"byteLength":1152,"byteOffset":174632,"byteStride":12,"target":34962},{"buffer":0,"byteLength":1152,"byteOffset":175784,"byteStride":12,"target":34962},{"buffer":0,"byteLength":11280,"byteOffset":176936,"target":34963},{"buffer":0,"byteLength":12912,"byteOffset":188216,"byteStride":12,"target":34962},{"buffer":0,"byteLength":12912,"byteOffset":201128,"byteStride":12,"target":34962},{"buffer":0,"byteLength":38784,"byteOffset":214040,"target":34963},{"buffer":0,"byteLength":48816,"byteOffset":252824,"byteStride":12,"target":34962},{"buffer":0,"byteLength":48816,"byteOffset":301640,"byteStride":12,"target":34962},{"buffer":0,"byteLength":42672,"byteOffset":350456,"target":34963},{"buffer":0,"byteLength":51516,"byteOffset":393128,"byteStride":12,"target":34962},{"buffer":0,"byteLength":51516,"byteOffset":444644,"byteStride":12,"target":34962},{"buffer":0,"byteLength":1728,"byteOffset":496160,"target":34963},{"buffer":0,"byteLength":2328,"byteOffset":497888,"byteStride":12,"target":34962},{"buffer":0,"byteLength":2328,"byteOffset":500216,"byteStride":12,"target":34962},{"buffer":0,"byteLength":1728,"byteOffset":502544,"target":34963},{"buffer":0,"byteLength":2328,"byteOffset":504272,"byteStride":12,"target":34962},{"buffer":0,"byteLength":2328,"byteOffset":506600,"byteStride":12,"target":34962},{"buffer":0,"byteLength":1728,"byteOffset":508928,"target":34963},{"buffer":0,"byteLength":2328,"byteOffset":510656,"byteStride":12,"target":34962},{"buffer":0,"byteLength":2328,"byteOffset":512984,"byteStride":12,"target":34962},{"buffer":0,"byteLength":1728,"byteOffset":515312,"target":34963},{"buffer":0,"byteLength":2328,"byteOffset":517040,"byteStride":12,"target":34962},{"buffer":0,"byteLength":2328,"byteOffset":519368,"byteStride":12,"target":34962},{"buffer":0,"byteLength":1728,"byteOffset":521696,"target":34963},{"buffer":0,"byteLength":2328,"byteOffset":523424,"byteStride":12,"target":34962},{"buffer":0,"byteLength":2328,"byteOffset":525752,"byteStride":12,"target":34962},{"buffer":0,"byteLength":12432,"byteOffset":528080,"target":34963},{"buffer":0,"byteLength":12888,"byteOffset":540512,"byteStride":12,"target":34962},{"buffer":0,"byteLength":12888,"byteOffset":553400,"byteStride":12,"target":34962}],"buffers":[{"byteLength":566288,"uri":"silab2.bin"}],"extensionsUsed":["KHR_materials_pbrSpecularGlossiness"],"images":[{"mimeType":"image/jpeg","uri":"Textures/8c033852-2422-451f-ade1-aab98832347c.jpg"}],"materials":[{"extensions":{"KHR_materials_pbrSpecularGlossiness":{"diffuseFactor":[1.0,1.0,1.0,1.0],"diffuseTexture":{"index":0},"specularFactor":[0.5,0.5,0.5],"glossinessFactor":0.5}},"name":"texture","alphaMode":"MASK","doubleSided":true,"pbrMetallicRoughness":{"baseColorTexture":{"index":0},"metallicFactor":0.5,"roughnessFactor":0.5}},{"extensions":{"KHR_materials_pbrSpecularGlossiness":{"diffuseFactor":[0.0,0.0,0.0,1.0],"specularFactor":[0.0,0.0,0.0],"glossinessFactor":0.5}},"name":"Mtl","alphaMode":"MASK","doubleSided":true,"pbrMetallicRoughness":{"baseColorFactor":[0.0,0.0,0.0,1.0],"metallicFactor":0.5}},{"extensions":{"KHR_materials_pbrSpecularGlossiness":{"diffuseFactor":[0.6274510025978088,0.6274510025978088,0.6274510025978088,1.0],"specularFactor":[0.6274510025978088,0.6274510025978088,0.6274510025978088],"glossinessFactor":0.5}},"name":"Mtl3","alphaMode":"MASK","doubleSided":true,"pbrMetallicRoughness":{"baseColorFactor":[0.6274510025978088,0.6274510025978088,0.6274510025978088,1.0],"metallicFactor":0.5,"roughnessFactor":0.5}},{"extensions":{"KHR_materials_pbrSpecularGlossiness":{"diffuseFactor":[0.6274510025978088,0.6274510025978088,0.6274510025978088,1.0],"specularFactor":[0.6274510025978088,0.6274510025978088,0.6274510025978088],"glossinessFactor":0.5}},"name":"Mtl5","alphaMode":"MASK","doubleSided":true,"pbrMetallicRoughness":{"baseColorFactor":[0.6274510025978088,0.6274510025978088,0.6274510025978088,1.0],"metallicFactor":0.5,"roughnessFactor":0.5}},{"extensions":{"KHR_materials_pbrSpecularGlossiness":{"diffuseFactor":[0.6274510025978088,0.6274510025978088,0.6274510025978088,1.0],"specularFactor":[0.3137255012989044,0.3137255012989044,0.3137255012989044],"glossinessFactor":0.5}},"name":"Mtl6","alphaMode":"MASK","doubleSided":true,"pbrMetallicRoughness":{"baseColorFactor":[0.6274510025978088,0.6274510025978088,0.6274510025978088,1.0],"metallicFactor":0.5,"roughnessFactor":0.5}},{"extensions":{"KHR_materials_pbrSpecularGlossiness":{"diffuseFactor":[0.9607843160629273,0.9607843160629273,0.9647058844566345,1.0],"specularFactor":[0.4803921580314636,0.4803921580314636,0.48235294222831728],"glossinessFactor":0.5}},"name":"Mtl7","alphaMode":"MASK","doubleSided":true,"pbrMetallicRoughness":{"baseColorFactor":[0.9607843160629273,0.9607843160629273,0.9647058844566345,1.0],"metallicFactor":0.5,"roughnessFactor":0.5}},{"extensions":{"KHR_materials_pbrSpecularGlossiness":{"diffuseFactor":[0.24705882370471955,0.24705882370471955,0.24705882370471955,1.0],"specularFactor":[0.24705882370471955,0.24705882370471955,0.24705882370471955],"glossinessFactor":0.5}},"name":"Mtl9","alphaMode":"MASK","doubleSided":true,"pbrMetallicRoughness":{"baseColorFactor":[0.24705882370471955,0.24705882370471955,0.24705882370471955,1.0],"metallicFactor":0.5,"roughnessFactor":0.5}},{"extensions":{"KHR_materials_pbrSpecularGlossiness":{"diffuseFactor":[0.6274510025978088,0.6274510025978088,0.6274510025978088,1.0],"specularFactor":[0.6274510025978088,0.6274510025978088,0.6274510025978088],"glossinessFactor":0.5}},"name":"Mtlb","alphaMode":"MASK","doubleSided":true,"pbrMetallicRoughness":{"baseColorFactor":[0.6274510025978088,0.6274510025978088,0.6274510025978088,1.0],"metallicFactor":0.5,"roughnessFactor":0.5}},{"extensions":{"KHR_materials_pbrSpecularGlossiness":{"diffuseFactor":[0.7921568751335144,0.8196078538894653,0.9333333373069763,1.0],"specularFactor":[0.3960784375667572,0.40980392694473269,0.46666666865348818],"glossinessFactor":0.5}},"name":"Mtl10","alphaMode":"MASK","doubleSided":true,"pbrMetallicRoughness":{"baseColorFactor":[0.7921568751335144,0.8196078538894653,0.9333333373069763,1.0],"metallicFactor":0.5,"roughnessFactor":0.5}},{"extensions":{"KHR_materials_pbrSpecularGlossiness":{"diffuseFactor":[0.6196078658103943,0.40784314274787905,0.20000000298023225,1.0],"specularFactor":[0.30980393290519717,0.20392157137393952,0.10000000149011612],"glossinessFactor":0.5}},"name":"Mtl1","alphaMode":"MASK","doubleSided":true,"pbrMetallicRoughness":{"baseColorFactor":[0.6196078658103943,0.40784314274787905,0.20000000298023225,1.0],"metallicFactor":0.5,"roughnessFactor":0.5}},{"extensions":{"KHR_materials_pbrSpecularGlossiness":{"diffuseFactor":[0.0,0.0,0.0,1.0],"specularFactor":[0.0,0.0,0.0],"glossinessFactor":0.5}},"name":"Mtl12","alphaMode":"MASK","doubleSided":true,"pbrMetallicRoughness":{"baseColorFactor":[0.0,0.0,0.0,1.0],"metallicFactor":0.5}}],"meshes":[{"primitives":[{"attributes":{"NORMAL":2,"POSITION":1,"TEXCOORD_0":3},"indices":0,"material":0,"mode":4}]},{"primitives":[{"attributes":{"NORMAL":6,"POSITION":5},"indices":4,"material":1,"mode":4}]},{"primitives":[{"attributes":{"NORMAL":9,"POSITION":8},"indices":7,"material":2,"mode":4}]},{"primitives":[{"attributes":{"NORMAL":9,"POSITION":8},"indices":7,"material":2,"mode":4}]},{"primitives":[{"attributes":{"NORMAL":9,"POSITION":8},"indices":7,"material":2,"mode":4}]},{"primitives":[{"attributes":{"NORMAL":12,"POSITION":11},"indices":10,"material":3,"mode":4}]},{"primitives":[{"attributes":{"NORMAL":15,"POSITION":14},"indices":13,"material":4,"mode":4}]},{"primitives":[{"attributes":{"NORMAL":15,"POSITION":14},"indices":13,"material":4,"mode":4}]},{"primitives":[{"attributes":{"NORMAL":18,"POSITION":17},"indices":16,"material":5,"mode":4}]},{"primitives":[{"attributes":{"NORMAL":21,"POSITION":20},"indices":19,"material":6,"mode":4}]},{"primitives":[{"attributes":{"NORMAL":24,"POSITION":23},"indices":22,"material":7,"mode":4}]},{"primitives":[{"attributes":{"NORMAL":27,"POSITION":26},"indices":25,"material":8,"mode":4}]},{"primitives":[{"attributes":{"NORMAL":30,"POSITION":29},"indices":28,"material":9,"mode":4}]},{"primitives":[{"attributes":{"NORMAL":33,"POSITION":32},"indices":31,"material":9,"mode":4}]},{"primitives":[{"attributes":{"NORMAL":36,"POSITION":35},"indices":34,"material":9,"mode":4}]},{"primitives":[{"attributes":{"NORMAL":39,"POSITION":38},"indices":37,"material":9,"mode":4}]},{"primitives":[{"attributes":{"NORMAL":42,"POSITION":41},"indices":40,"material":9,"mode":4}]},{"primitives":[{"attributes":{"NORMAL":45,"POSITION":44},"indices":43,"material":9,"mode":4}]},{"primitives":[{"attributes":{"NORMAL":48,"POSITION":47},"indices":46,"material":9,"mode":4}]},{"primitives":[{"attributes":{"NORMAL":51,"POSITION":50},"indices":49,"material":10,"mode":4}]}],"nodes":[{"children":[1,2,36],"matrix":[1.0,0.0,0.0,0.0,0.0,4.4896593387466768e-11,-1.0,0.0,0.0,1.0,4.4896593387466768e-11,0.0,0.0,0.0,0.0,1.0]},{"name":"Camera-1","rotation":[-0.7071067690849304,0.0,0.0,-0.7071067690849304],"translation":[0.07969478517770767,-0.4390934109687805,0.05210966244339943]},{"name":"Assem4-1","children":[3,7],"rotation":[0.0,0.0,0.0,-1.0]},{"name":"Stand-1","children":[4],"rotation":[-0.7071067690849304,0.0,0.0,-0.7071067690849304],"translation":[0.03569478541612625,-0.11359086632728577,0.015218645334243775]},{"name":"Body_1","children":[5,6],"rotation":[0.0,0.0,0.0,-1.0]},{"name":"3DGeom-19","mesh":0,"rotation":[0.0,0.0,0.0,-1.0]},{"name":"3DGeom-20","mesh":1,"rotation":[0.0,0.0,0.0,-1.0]},{"name":"2.8inch_LCD_Model.step-1","children":[8,10,12,14,16,18,20,22,24,26,28],"rotation":[0.0,0.0,0.0,-1.0]},{"name":"10mm connector.step-1","children":[9],"rotation":[-0.6123724579811096,-0.6123724579811096,0.3535533845424652,-0.3535533845424652],"translation":[0.03899478539824486,-0.0953083336353302,0.062144916504621509]},{"name":"Body_1","mesh":2,"rotation":[0.0,0.0,0.0,-1.0]},{"name":"10mm connector.step-2","children":[11],"rotation":[-0.8660253882408142,0.0,0.0,-0.5],"translation":[0.09189478307962418,-0.07930833846330643,0.034432101994752887]},{"name":"Body_1","mesh":3,"rotation":[0.0,0.0,0.0,-1.0]},{"name":"10mm connector.step-3","children":[13],"rotation":[-0.8660253882408142,0.0,0.0,-0.5],"translation":[0.10769478231668472,-0.07930833846330643,0.034432101994752887]},{"name":"Body_1","mesh":4,"rotation":[0.0,0.0,0.0,-1.0]},{"name":"Spkr Connector.step-1","children":[15],"rotation":[0.0,0.5,0.8660253882408142,-0.0],"translation":[0.06504478305578232,-0.10253333300352097,0.07465898245573044]},{"name":"Body_1","mesh":5,"rotation":[0.0,0.0,0.0,-1.0]},{"name":"switch.step-1","children":[17],"rotation":[-0.6123724579811096,0.6123724579811096,-0.3535533845424652,-0.3535533845424652],"translation":[0.11374478042125702,-0.10065833479166031,0.0714113861322403]},{"name":"Body_1","mesh":6,"rotation":[0.0,0.0,0.0,-1.0]},{"name":"switch.step-2","children":[19],"rotation":[-0.6123724579811096,0.6123724579811096,-0.3535533845424652,-0.3535533845424652],"translation":[0.10944478213787079,-0.10065833479166031,0.0714113861322403]},{"name":"Body_1","mesh":7,"rotation":[0.0,0.0,0.0,-1.0]},{"name":"Micro SD Card.step-1","children":[21],"rotation":[-0.8660253882408142,0.0,0.0,-0.5],"translation":[0.07529478520154953,-0.08190833777189255,0.03893543407320976]},{"name":"Body_1","mesh":8,"rotation":[0.0,0.0,0.0,-1.0]},{"name":"ESP32 WROOM.step-1","children":[23],"rotation":[-0.6123724579811096,0.6123724579811096,-0.3535533845424652,-0.3535533845424652],"translation":[0.11029478162527085,-0.09152615815401077,0.053993988782167438]},{"name":"Body_1","mesh":9,"rotation":[0.0,0.0,0.0,-1.0]},{"name":"LDR 21.step-1","children":[25],"rotation":[-0.6123724579811096,0.6123724579811096,-0.3535533845424652,-0.3535533845424652],"translation":[0.1193447858095169,-0.0816664770245552,0.04311652481555939]},{"name":"Body_1","mesh":10,"rotation":[0.0,0.0,0.0,-1.0]},{"name":"2.8inch_LCD_Model.step-1","children":[27],"rotation":[-0.8660253882408142,0.0,0.0,-0.5],"translation":[0.07999478280544281,-0.08944769203662873,0.05519398674368858]},{"name":"Body_1","mesh":11,"rotation":[0.0,0.0,0.0,-1.0]},{"name":"Micro usb.step-1","children":[29,30,31,32,33,34,35],"rotation":[0.6830127239227295,0.1830127090215683,-0.6830127239227295,-0.1830127090215683],"translation":[0.03730698302388191,-0.08686421811580658,0.04506927356123924]},{"name":"Body_1","mesh":12,"rotation":[0.0,0.0,0.0,-1.0]},{"name":"Body_2","mesh":13,"rotation":[0.0,0.0,0.0,-1.0]},{"name":"Body_3","mesh":14,"rotation":[0.0,0.0,0.0,-1.0]},{"name":"Body_4","mesh":15,"rotation":[0.0,0.0,0.0,-1.0]},{"name":"Body_5","mesh":16,"rotation":[0.0,0.0,0.0,-1.0]},{"name":"Body_6","mesh":17,"rotation":[0.0,0.0,0.0,-1.0]},{"name":"Body_7","mesh":18,"rotation":[0.0,0.0,0.0,-1.0]},{"name":"Back-1","children":[37],"rotation":[-0.7071067690849304,0.0,0.0,-0.7071067690849304],"translation":[0.03569478541612625,-0.12311714142560959,0.009718645364046097]},{"name":"Body_1","mesh":19,"rotation":[0.0,0.0,0.0,-1.0]}],"scene":0,"scenes":[{"nodes":[0]}],"textures":[{"source":0}]}