<!-- by TradingView --><svg width="56" height="56" viewBox="0 0 56 56" xmlns="http://www.w3.org/2000/svg"><path fill="#F0F3FA" d="M0 0h56v56H0z"/><path d="M49 25v-2h-6v10h2v-4h4v-2h-4v-2h4ZM38 23h-2v10h6v-2h-4v-8ZM33 28.85c0 1.4-.73 2.15-2 2.15-1.28 0-2-.75-2-2.15V23h-2v5.88c.01 2.66 1.2 4.12 4 4.12s3.98-1.46 4-4.12V23h-2v5.85ZM21 27.5v2h2.94c-.16.61-.78 1.5-2.25 1.5-1.86 0-2.7-1.47-2.7-3 0-2.1 1.35-3 2.69-3A2.28 2.28 0 0 1 24 26.79l1.89-.71A4.2 4.2 0 0 0 21.68 23c-1.25 0-2.4.48-3.27 1.34A5.06 5.06 0 0 0 17 28.01c0 1.47.48 2.74 1.39 3.65a4.59 4.59 0 0 0 3.3 1.34 4 4 0 0 0 3.16-1.28c1.33-1.53 1.14-4.22 1.14-4.22H21Z" fill="#004370"/><path d="M11.42 26.37a10.43 10.43 0 0 0-1.8 4.76c.16.61.23 1.24.2 1.87 1.68.03 3.01-1.21 3.86-2.96 1.02-2.1 1.3-5.47 2.32-7.04a7.65 7.65 0 0 0-4.58 3.37Z" fill="#6AB96F"/><path d="M5 27.78c.76 1.88 1.23 5.12 4.83 5.22C9.9 30 8.27 27.87 5 27.78Z" fill="#004370"/></svg>