<!-- by TradingView --><svg xmlns="http://www.w3.org/2000/svg" width="56" height="56" viewBox="0 0 56 56"><path fill="#F0F3FA" d="M0 0h56v56H0z"/><path d="M18.63 23.31c-6.76 2.68-12.57.26-14.63-1.29 8.17 7.85 14.48 5.45 17.38 2.85 2.35-2.1 4.73-3.4 5.62-3.8-2.38-.43-5.62 1.15-8.37 2.24z" fill="url(#aucarfb2f)"/><path d="M19.4 26.71c-5.32 3.02-10.48.16-12.4-1.64.62 1.33 3.71 4.95 7.1 4.89 2.72-.05 4.67-2.19 5.3-3.25z" fill="url(#bucarfb2f)"/><path fill-rule="evenodd" d="M20 27.5a.5.5 0 0 1 1 0v4a.5.5 0 0 1-1 0v-4zm6.5 0c0 .28.22.5.5.5h1v3.5a.5.5 0 0 0 1 0V28h1a.5.5 0 0 0 0-1h-3a.5.5 0 0 0-.5.5zm21-.5a.5.5 0 0 0-.5.5v4a.5.5 0 0 0 1 0V30h2v1.5a.5.5 0 0 0 1 0v-4a.5.5 0 0 0-1 0V29h-2v-1.5a.5.5 0 0 0-.5-.5zm-25.5.5a.5.5 0 0 1 .93-.25L25 30.07V27.5a.5.5 0 0 1 1 0v4a.5.5 0 0 1-.49.5.43.43 0 0 1-.35-.14.5.5 0 0 1-.1-.12L23 28.94v2.56a.5.5 0 0 1-1 0v-4zm14 2a2.5 2.5 0 1 1-5 0 2.5 2.5 0 0 1 5 0zm-1 0a1.5 1.5 0 1 1-3 0 1.5 1.5 0 0 1 3 0zm3-2a.5.5 0 0 0-1 0V30a2 2 0 1 0 4 0v-2.5a.5.5 0 0 0-1 0V30a1 1 0 1 1-2 0v-2.5zm8.21 3.8c.18-.17.15-.45-.04-.62-.22-.2-.56-.14-.8.03a1.5 1.5 0 1 1-.04-2.46c.24.16.55.2.77.03.2-.17.24-.47.04-.64A2.5 2.5 0 0 0 42 29.5a2.5 2.5 0 0 0 4.21 1.8z" fill="#463738"/><defs><linearGradient id="aucarfb2f" x1="25.72" y1="21.9" x2="4.9" y2="22.1" gradientUnits="userSpaceOnUse"><stop stop-color="#73A434"/><stop offset=".92" stop-color="#CADB2F"/></linearGradient><linearGradient id="bucarfb2f" x1="7" y1="26.12" x2="17.76" y2="27.99" gradientUnits="userSpaceOnUse"><stop stop-color="#73A434"/><stop offset="1" stop-color="#CADB2F"/></linearGradient></defs></svg>